<?xml version="1.0" encoding="UTF-8"?>
<svg version="1.1" xmlns="http://www.w3.org/2000/svg" width="291" height="172">
<path d="M0 0 C10.56 0 21.12 0 32 0 C32.33 20.13 32.66 40.26 33 61 C38.61 40.87 44.22 20.74 50 0 C61.55 0 73.1 0 85 0 C81.62508612 11.24971293 81.62508612 11.24971293 79.93457031 15.79077148 C79.36817841 17.31933022 79.36817841 17.31933022 78.79034424 18.87876892 C78.39031189 19.94873611 77.99027954 21.01870331 77.578125 22.12109375 C77.15505066 23.2604689 76.73197632 24.39984406 76.29608154 25.57374573 C74.95031881 29.19609507 73.60028383 32.81683385 72.25 36.4375 C71.35908143 38.83257311 70.46845403 41.22775455 69.578125 43.62304688 C69.14222046 44.79421051 68.70631592 45.96537415 68.25720215 47.17202759 C67.39188438 49.50212024 66.52995242 51.83347323 65.67150879 54.16610718 C63.75943543 59.34985238 61.81570005 64.50428249 59.69335938 69.60595703 C59.34924011 70.45779068 59.00512085 71.30962433 58.65057373 72.18727112 C58.0263233 73.72470435 57.37942026 75.25326487 56.70343018 76.7686615 C54.25133522 82.91009422 55.67086642 86.99930541 58 93 C58.38656769 94.05875839 58.77313538 95.11751678 59.17141724 96.20835876 C60.2853936 99.23487053 61.42316932 102.25092884 62.5766964 105.26255608 C63.34079718 107.25814128 64.10015629 109.25547573 64.85835266 111.25331116 C67.01182879 116.92499771 69.17424713 122.59326524 71.33813477 128.26098633 C72.66843696 131.74631096 73.99394027 135.23343068 75.31662941 138.72165108 C76.06400881 140.68798174 76.81706784 142.65207659 77.57023621 144.61619568 C78.24642754 146.39933922 78.24642754 146.39933922 78.9362793 148.21850586 C79.53559517 149.78875771 79.53559517 149.78875771 80.14701843 151.39073181 C81 154 81 154 81 157 C81.66 157 82.32 157 83 157 C83.11637817 155.89455841 83.23275635 154.78911682 83.35266113 153.650177 C83.99479966 148.54286154 85.15842605 143.59839492 86.35742188 138.59716797 C86.5967041 137.58414612 86.83598633 136.57112427 87.08251953 135.52740479 C87.87392753 132.18136997 88.67131868 128.83679148 89.46875 125.4921875 C90.02905628 123.12851576 90.5889858 120.76475468 91.14855957 118.40090942 C92.62753442 112.15765881 94.11156622 105.91562094 95.59667969 99.67382812 C97.07263202 93.46685022 98.543991 87.25878415 100.015625 81.05078125 C101.73261483 73.80874697 103.45047854 66.56692502 105.17260742 59.32611084 C107.7341252 48.55551705 110.28986176 37.78374027 112.81640625 27.00488281 C113.44294598 24.33736203 114.06967752 21.66988636 114.69642639 19.0024147 C115.26663622 16.57014852 115.8330261 14.13701374 116.39929199 11.7038269 C116.73540232 10.27272068 117.07169334 8.84165688 117.40820312 7.41064453 C117.83703796 5.57350388 117.83703796 5.57350388 118.27453613 3.69924927 C119 1 119 1 120 0 C122.29151417 -0.08790975 124.58572524 -0.10694038 126.87890625 -0.09765625 C127.90889992 -0.09553383 127.90889992 -0.09553383 128.95970154 -0.09336853 C131.16067801 -0.08775479 133.36155409 -0.07520007 135.5625 -0.0625 C137.05143083 -0.05748676 138.54036324 -0.05292355 140.02929688 -0.04882812 C143.68623352 -0.03863031 147.3431026 -0.01967077 151 0 C154.46058063 12.57229082 157.49667902 25.23575803 160.5078125 37.921875 C161.03849992 40.15158493 161.56933616 42.38125944 162.10031128 44.61090088 C163.2126695 49.28375804 164.32366472 53.95693636 165.43359375 58.63037109 C166.82301852 64.48044893 168.21513535 70.32988168 169.60817337 76.17910004 C174.81937817 98.06265146 180.0146859 119.95015171 185.1378746 141.85449982 C185.57870942 143.73774647 186.02061863 145.62074198 186.46365738 147.50347137 C187.06741227 150.07090087 187.66690968 152.63928555 188.26513672 155.20800781 C188.53186502 156.33702641 188.53186502 156.33702641 188.80398178 157.48885345 C189.47753678 160.39915606 190 163.0011401 190 166 C179.11 166 168.22 166 157 166 C156.01 161.9471875 156.01 161.9471875 155 157.8125 C154.68675781 156.54950073 154.68675781 156.54950073 154.3671875 155.26098633 C154.12355469 154.24427856 154.12355469 154.24427856 153.875 153.20703125 C153.70742187 152.5210083 153.53984375 151.83498535 153.3671875 151.12817383 C153 149 153 149 153 144 C141.45 144 129.9 144 118 144 C117.505 147.96 117.505 147.96 117 152 C116.5355162 154.31989462 116.03769586 156.63347322 115.5 158.9375 C115.2421875 160.06027344 114.984375 161.18304688 114.71875 162.33984375 C114 165 114 165 113 166 C111.03630847 166.0940067 109.06920801 166.11743381 107.10327148 166.11352539 C105.84203964 166.11344986 104.5808078 166.11337433 103.28135681 166.11329651 C101.89460206 166.1081891 100.50784771 166.10297309 99.12109375 166.09765625 C97.71004791 166.09579201 96.29900143 166.09436814 94.88795471 166.09336853 C91.16759465 166.08954379 87.4472734 166.0797139 83.72692871 166.06866455 C79.93319219 166.05844948 76.13944942 166.05387071 72.34570312 166.04882812 C64.89711769 166.03809158 57.44856428 166.0210157 50 166 C42 142 34 118 26 94 C34.31007889 117.37209687 32.54785911 141.57968767 32 166 C21.44 166 10.88 166 0 166 C0 111.22 0 56.44 0 0 Z M125 27 C125.92159226 35.24978205 126.99777545 43.42628354 128.578125 51.578125 C128.71424194 52.29061401 128.85035889 53.00310303 128.99060059 53.73718262 C129.54744797 56.64309193 130.10708708 59.54791688 130.69726562 62.44726562 C132.58165618 71.76960303 133.34584078 79.63215172 131 89 C130.75636719 90.10956055 130.51273438 91.21912109 130.26171875 92.36230469 C129.49797876 95.8330571 128.69265641 99.29158723 127.875 102.75 C127.59785156 103.9359375 127.32070312 105.121875 127.03515625 106.34375 C126.36015545 109.22996032 125.68056335 112.11509625 125 115 C131.93 115 138.86 115 146 115 C142.76566253 99.41712794 139.36468615 83.87262462 135.90819931 68.33777428 C135.04772531 64.47035092 134.19030605 60.60230456 133.33984375 56.73266602 C132.50530674 52.93568643 131.66363659 49.14035622 130.8167305 45.34611702 C130.49764499 43.91092592 130.18108991 42.47516977 129.86713791 41.03884697 C129.43182184 39.04968744 128.98642576 37.06274185 128.54052734 35.07592773 C128.16557632 33.3831797 128.16557632 33.3831797 127.78305054 31.65623474 C127.1930621 28.87419339 127.1930621 28.87419339 125 27 Z " fill="#086B39" transform="translate(5,4)"/>
<path d="M0 0 C16.17 0 32.34 0 49 0 C51.3821875 9.3740625 51.3821875 9.3740625 53.8125 18.9375 C63.74792038 58.10155671 63.74792038 58.10155671 74.875 96.9375 C78.94694627 110.31815823 82.46126296 123.84565129 86 137.375 C86.2977533 138.50541718 86.59550659 139.63583435 86.90228271 140.80050659 C87.7541015 144.03976891 88.59720504 147.28116911 89.4375 150.5234375 C89.6964505 151.50557724 89.955401 152.48771698 90.22219849 153.49961853 C90.57433914 154.87145042 90.57433914 154.87145042 90.93359375 156.27099609 C91.2438147 157.46455215 91.2438147 157.46455215 91.56030273 158.68222046 C92 161 92 161 92 166 C76.82 166 61.64 166 46 166 C43.94949588 160.53198902 42.25848989 155.49784099 40.84375 149.90625 C40.01162869 146.87773144 40.01162869 146.87773144 38.65405273 143.55444336 C36.63779571 138.21071449 35.18114007 132.73195671 33.69140625 127.22265625 C33.37223236 126.0547908 33.05305847 124.88692535 32.72421265 123.68367004 C31.84944792 120.48026292 30.97800122 117.27598934 30.10813522 114.07125092 C29.18781159 110.68308814 28.26387285 107.29591178 27.34008789 103.90869141 C26.95591068 102.49994078 26.57174023 101.09118832 26.18757629 99.68243408 C25.99400858 98.97262642 25.80044086 98.26281876 25.60100746 97.53150177 C25.0010279 95.33058063 24.40161746 93.12950507 23.80229187 90.92840576 C20.93337533 80.39618222 18.03885231 69.87117803 15.13314247 59.34905052 C13.74480697 54.319798 12.35928546 49.28976935 10.9736433 44.25977421 C9.84436309 40.16135704 8.71329336 36.06344984 7.57839966 31.96658325 C6.50593821 28.09474953 5.43828818 24.22162048 4.3741951 20.34747887 C3.98007238 18.91600716 3.58415927 17.48502705 3.18635178 16.05457497 C2.64158603 14.09481333 2.10369692 12.13314402 1.56616211 10.17138672 C1.26213974 9.07043671 0.95811737 7.96948669 0.6448822 6.83517456 C0 4 0 4 0 0 Z " fill="#F0583E" transform="translate(198,5)"/>
<path d="M0 0 C0.66 0 1.32 0 2 0 C3.17571451 3.67410785 3.07366746 7.16929183 3 11 C0.81024227 7.71536341 0.00193437 4.79303725 -1 1 C-0.67 0.67 -0.34 0.34 0 0 Z " fill="#EF9183" transform="translate(238,148)"/>
<path d="M0 0 C0.66 0 1.32 0 2 0 C2 0.99 2 1.98 2 3 C2.66 3 3.32 3 4 3 C4 5.31 4 7.62 4 10 C3.34 9.67 2.68 9.34 2 9 C1.3671875 6.93359375 1.3671875 6.93359375 0.875 4.4375 C0.70742187 3.61121094 0.53984375 2.78492188 0.3671875 1.93359375 C0.24601563 1.29550781 0.12484375 0.65742188 0 0 Z " fill="#E29386" transform="translate(232,131)"/>
</svg>
