<?xml version="1.0" encoding="UTF-8"?>
<svg version="1.1" xmlns="http://www.w3.org/2000/svg" width="1188" height="165">
<path d="M0 0 C202.62 0 405.24 0 614 0 C614 53.46 614 106.92 614 162 C426.56 162 239.12 162 46 162 C39.06543726 140.04055131 39.06543726 140.04055131 36.24783325 129.87808228 C36.04189671 129.13691792 35.83596016 128.39575356 35.62378311 127.63212967 C35.41148937 126.86794094 35.19919563 126.10375221 34.98046875 125.31640625 C34.51958092 123.66701911 34.05838001 122.01771943 33.59689331 120.36849976 C32.62470277 116.89213874 31.65434317 113.41527471 30.68557739 109.93795776 C28.40017443 101.73494742 26.10573152 93.53446368 23.81194115 85.33379555 C23.03927873 82.57108563 22.26699086 79.80827118 21.4947052 77.04545593 C18.25482735 65.45910858 14.99466643 53.87868243 11.7109375 42.3046875 C11.50855532 41.59128897 11.30617313 40.87789043 11.09765816 40.14287376 C9.38495434 34.10685495 7.67014582 28.07143614 5.95223999 22.03689575 C5.25587086 19.59053602 4.55994073 17.14405126 3.86453247 14.69741821 C3.24572156 12.52039028 2.6258141 10.34367361 2.00460815 8.16732788 C1.73762115 7.22773224 1.47063416 6.2881366 1.19555664 5.32006836 C0.96292618 4.50372421 0.73029572 3.68738007 0.49061584 2.84629822 C0 1 0 1 0 0 Z M256 37 C251.69478587 43.4164249 250.29854303 49.9032277 251.5625 57.5 C253.34024159 64.3284114 257.30218017 69.15485429 263.1875 72.9375 C270.68535613 77.3001579 280.06634358 77.20906098 288.36328125 75.17578125 C293.63830722 73.33927071 293.63830722 73.33927071 298 70 C298.29316768 67.98254821 298.29316768 67.98254821 298.23046875 65.68359375 C298.22853516 64.83732422 298.22660156 63.99105469 298.22460938 63.11914062 C298.21236328 62.23419922 298.20011719 61.34925781 298.1875 60.4375 C298.18685547 59.54869141 298.18621094 58.65988281 298.18554688 57.74414062 C298.53382754 53.54366809 298.53382754 53.54366809 297 50 C294.81360547 49.92741054 292.62499611 49.91626217 290.4375 49.9375 C289.23996094 49.94652344 288.04242187 49.95554687 286.80859375 49.96484375 C285.41833984 49.98224609 285.41833984 49.98224609 284 50 C283.67 53.96 283.34 57.92 283 62 C274.69767442 62.36627907 274.69767442 62.36627907 271.5 60.6875 C268.64621271 57.4769893 268.77927479 54.07447109 268.84765625 49.93359375 C269.04081593 47.48195165 269.49411333 45.95765267 271 44 C274.45061317 41.44399024 277.8343112 41.57637063 282 42 C284.53409304 43.13393269 286.66202311 44.47315795 289 46 C292.3 43.36 295.6 40.72 299 38 C296.44634354 32.89268708 293.48985415 30.98053328 288.22265625 28.90625 C276.22415734 25.53212667 264.66687583 28.13156892 256 37 Z M91 29 C91 44.18 91 59.36 91 75 C96.28 75 101.56 75 107 75 C107 59.82 107 44.64 107 29 C101.72 29 96.44 29 91 29 Z M114 29 C114 44.18 114 59.36 114 75 C119.28 75 124.56 75 130 75 C130.33 69.06 130.66 63.12 131 57 C132.7325 59.041875 134.465 61.08375 136.25 63.1875 C136.78786133 63.82067139 137.32572266 64.45384277 137.87988281 65.10620117 C138.31655273 65.62158447 138.75322266 66.13696777 139.203125 66.66796875 C139.64301758 67.18641357 140.08291016 67.7048584 140.53613281 68.23901367 C142.38842554 70.46726375 144.18988352 72.7373544 146 75 C150.62 75 155.24 75 160 75 C160 59.82 160 44.64 160 29 C154.72 29 149.44 29 144 29 C143.67 34.94 143.34 40.88 143 47 C141.081875 44.7725 139.16375 42.545 137.1875 40.25 C136.58832764 39.55551758 135.98915527 38.86103516 135.37182617 38.14550781 C134.89205322 37.58702148 134.41228027 37.02853516 133.91796875 36.453125 C133.43094482 35.88754883 132.9439209 35.32197266 132.44213867 34.73925781 C130.89800195 32.87698762 129.4515051 30.93534013 128 29 C123.38 29 118.76 29 114 29 Z M163 29 C163 32.96 163 36.92 163 41 C163.33 41.33 163.66 41.66 164 42 C168.29 42 172.58 42 177 42 C177 52.89 177 63.78 177 75 C182.28 75 187.56 75 193 75 C193 64.11 193 53.22 193 42 C196.96 42 200.92 42 205 42 C205.33 41.67 205.66 41.34 206 41 C206 37.04 206 33.08 206 29 C191.81 29 177.62 29 163 29 Z M209 29 C209 44.18 209 59.36 209 75 C221.87 75 234.74 75 248 75 C248 71.04 248 67.08 248 63 C240.41 63 232.82 63 225 63 C225 61.35 225 59.7 225 58 C225.57032959 58.00523682 226.14065918 58.01047363 226.72827148 58.01586914 C229.29800323 58.03658221 231.86771747 58.0496419 234.4375 58.0625 C235.78424805 58.07506836 235.78424805 58.07506836 237.15820312 58.08789062 C238.43920898 58.09272461 238.43920898 58.09272461 239.74609375 58.09765625 C240.53685303 58.10289307 241.3276123 58.10812988 242.14233398 58.11352539 C244.01592689 58.20495909 244.01592689 58.20495909 245 57 C245.07226502 55.14712498 245.0838122 53.29166122 245.0625 51.4375 C245.041875 49.643125 245.02125 47.84875 245 46 C238.4 46 231.8 46 225 46 C225 44.35 225 42.7 225 41 C232.26 41 239.52 41 247 41 C247 37.04 247 33.08 247 29 C234.46 29 221.92 29 209 29 Z M304 29 C304 44.18 304 59.36 304 75 C309.28 75 314.56 75 320 75 C320 71.37 320 67.74 320 64 C321.32 64.33 322.64 64.66 324 65 C324.96054861 66.63892611 325.84932823 68.32060543 326.69140625 70.0234375 C329.15406544 73.71512474 330.26533967 74.8349541 334.65576172 75.82128906 C339.09355529 76.11029447 343.50322398 75.8733532 347.9375 75.625 C349.49529999 75.57478496 351.05325536 75.52916696 352.61132812 75.48828125 C356.4114146 75.37859463 360.20398948 75.20642574 364 75 C364.99 72.69 365.98 70.38 367 68 C375.415 67.505 375.415 67.505 384 67 C384.495 69.475 384.495 69.475 385 72 C385.33 72.99 385.66 73.98 386 75 C391.61 75 397.22 75 403 75 C400.71506671 67.52721105 397.66325169 60.47698615 394.43920898 53.37036133 C393.56351505 51.43973785 392.69431614 49.50629403 391.82617188 47.57226562 C389.0092271 41.31516887 386.13360333 35.10552197 383 29 C377.72 29 372.44 29 367 29 C365.25732242 32.87319142 363.51544457 36.74672527 361.77539062 40.62109375 C361.18630502 41.93216062 360.59680346 43.24304069 360.00683594 44.55371094 C355.9072717 53.66229905 351.90382078 62.8056387 348 72 C344.07024026 68.13698777 341.55644991 64.82884983 339 60 C339.598125 59.7525 340.19625 59.505 340.8125 59.25 C344.35758004 57.22423998 345.72664719 54.82005844 347 51 C347.52166057 46.03139685 347.5724051 42.14481021 345.3125 37.625 C340.85546847 32.56566692 336.64075365 29.25594534 329.77026367 28.77294922 C328.58150635 28.78342285 327.39274902 28.79389648 326.16796875 28.8046875 C324.42036255 28.81218018 324.42036255 28.81218018 322.63745117 28.81982422 C321.16896729 28.83803223 319.7004834 28.85624023 318.1875 28.875 C311.1646875 28.936875 311.1646875 28.936875 304 29 Z M399 29 C399 32.96 399 36.92 399 41 C399.33 41.33 399.66 41.66 400 42 C404.29 42 408.58 42 413 42 C413 52.89 413 63.78 413 75 C418.28 75 423.56 75 429 75 C429 64.11 429 53.22 429 42 C432.96 42 436.92 42 441 42 C441.33 41.67 441.66 41.34 442 41 C442 37.04 442 33.08 442 29 C427.81 29 413.62 29 399 29 Z M445 29 C445 44.18 445 59.36 445 75 C457.87 75 470.74 75 484 75 C484 71.04 484 67.08 484 63 C476.41 63 468.82 63 461 63 C461 61.35 461 59.7 461 58 C461.57032959 58.00523682 462.14065918 58.01047363 462.72827148 58.01586914 C465.29800323 58.03658221 467.86771747 58.0496419 470.4375 58.0625 C471.78424805 58.07506836 471.78424805 58.07506836 473.15820312 58.08789062 C474.43920898 58.09272461 474.43920898 58.09272461 475.74609375 58.09765625 C476.53685303 58.10289307 477.3276123 58.10812988 478.14233398 58.11352539 C480.01592689 58.20495909 480.01592689 58.20495909 481 57 C481.07226502 55.14712498 481.0838122 53.29166122 481.0625 51.4375 C481.041875 49.643125 481.02125 47.84875 481 46 C474.4 46 467.8 46 461 46 C461 44.35 461 42.7 461 41 C468.26 41 475.52 41 483 41 C483 37.04 483 33.08 483 29 C470.46 29 457.92 29 445 29 Z M489 29 C489 44.18 489 59.36 489 75 C496.3940625 75.12375 496.3940625 75.12375 503.9375 75.25 C506.2422229 75.30462402 506.2422229 75.30462402 508.59350586 75.36035156 C517.75273843 75.43436556 524.00901794 74.10549995 531.8125 69.25 C536.89730127 64.0199187 538.2735775 59.29236589 538.5 52 C538.26059381 44.99736892 537.30073344 40.1933343 532.19921875 35.2578125 C525.95960351 30.19342577 519.76914084 28.7358872 511.75390625 28.8046875 C510.5532251 28.80968262 509.35254395 28.81467773 508.11547852 28.81982422 C506.61299561 28.83803223 505.1105127 28.85624023 503.5625 28.875 C498.756875 28.91625 493.95125 28.9575 489 29 Z M93.125 90.4375 C89.28976992 95.06233627 88.47278805 97.88434144 89 104 C90.49572349 108.48717047 92.37593268 110.86979866 96.6171875 113.0546875 C101.92609689 115.160845 107.48061257 116.56082547 113 118 C113 118.66 113 119.32 113 120 C105.78528371 120.35482211 99.87581298 119.1591338 93 117 C92.29819469 118.4096347 91.61406042 119.82807641 90.9375 121.25 C90.55464844 122.03890625 90.17179688 122.8278125 89.77734375 123.640625 C88.89747748 126.31117388 88.82655459 127.45570714 90 130 C95.89274612 132.99994348 101.56159042 133.32834169 108.0625 133.4375 C108.81781006 133.45973633 109.57312012 133.48197266 110.35131836 133.50488281 C115.98514617 133.4828398 120.29495455 132.13692572 125 129 C129.1485486 124.53233227 130.54131279 121.40557585 130.3671875 115.37890625 C129.84047512 111.96648243 128.84128396 110.06289128 126.45703125 107.57421875 C120.75423239 103.92043824 111.7710023 101 105 101 C105.33 100.34 105.66 99.68 106 99 C112.46686012 97.1724091 117.736606 98.99526087 124 101 C124.69906942 99.40084119 125.38389468 97.79544955 126.0625 96.1875 C126.63677734 94.84751953 126.63677734 94.84751953 127.22265625 93.48046875 C128.29461205 90.9080764 128.29461205 90.9080764 127 88 C117.17103859 82.07335577 101.74140862 83.13228399 93.125 90.4375 Z M304.0625 92.6875 C299.32722233 98.69594195 297.17998456 105.34652255 298 113 C299.79431535 120.5153208 302.45970439 125.49325265 309.0625 129.75 C316.01604273 133.96750384 324.0697196 133.95905608 332 133 C337.04513987 131.39077435 341.53071389 129.08215685 345 125 C345.22728213 122.85044529 345.22728213 122.85044529 343.390625 121.2734375 C342.68421875 120.64695313 341.9778125 120.02046875 341.25 119.375 C340.55390625 118.74335937 339.8578125 118.11171875 339.140625 117.4609375 C336.88129241 115.62419272 336.88129241 115.62419272 333 116 C332.4225 116.495 331.845 116.99 331.25 117.5 C328.50447154 119.33035231 326.24758631 119.55759298 322.97265625 119.3984375 C321 119 321 119 318 117.125 C315.26275202 112.84805004 315.03147199 108.96370607 316 104 C317.43532538 101.44485421 318.27919578 100.2636084 321.05078125 99.25 C325.19004377 98.79246494 328.00500864 98.55736887 331.5625 100.9375 C332.366875 101.618125 333.17125 102.29875 334 103 C336.99220268 101.63629701 339.29026529 100.05091917 341.75 97.875 C342.36359375 97.33617188 342.9771875 96.79734375 343.609375 96.2421875 C344.06828125 95.83226563 344.5271875 95.42234375 345 95 C341.5533631 90.06657856 338.43923284 87.02094917 332.55078125 85.4375 C321.93298328 83.61637692 311.78796565 84.59030692 304.0625 92.6875 Z M393 91.875 C390.07587315 96.4439482 389.72240198 99.24187923 390.5625 104.5625 C392.24708309 108.59085087 394.37846053 110.71147174 398 113 C400.87714572 114.1631593 403.80359553 114.94104544 406.8125 115.6875 C409.57208346 116.39632069 412.27501536 117.15859088 415 118 C415.33 118.66 415.66 119.32 416 120 C408.48193151 120.44032071 402.15775723 119.28612778 395 117 C394.13372601 118.59766103 393.28233535 120.20339944 392.4375 121.8125 C391.96183594 122.70582031 391.48617188 123.59914062 390.99609375 124.51953125 C389.66271667 127.06644576 389.66271667 127.06644576 391 130 C396.98234131 132.93678573 402.56882853 133.30892436 409.125 133.375 C409.88868896 133.38877686 410.65237793 133.40255371 411.43920898 133.41674805 C418.00379391 133.36346984 422.69212314 131.94887379 427.8125 127.625 C431.04544123 123.74547052 432.25223759 121.02669093 431.875 116 C431.17630103 111.95969729 430.19746023 109.7406802 427 107 C421.96842512 104.67835693 416.77647189 103.12699381 411.375 101.9375 C410.26125 101.628125 409.1475 101.31875 408 101 C407.67 100.01 407.34 99.02 407 98 C413.47578998 97.56828067 418.78831485 99.1595007 425 101 C426.65 97.04 428.3 93.08 430 89 C418.63400949 83.05868678 402.47086147 81.70853853 393 91.875 Z M134 86 C134 101.18 134 116.36 134 132 C146.87 132 159.74 132 173 132 C173 128.04 173 124.08 173 120 C165.41 120 157.82 120 150 120 C150 118.35 150 116.7 150 115 C156.27 115 162.54 115 169 115 C169 111.04 169 107.08 169 103 C162.73 103 156.46 103 150 103 C150 101.35 150 99.7 150 98 C157.26 98 164.52 98 172 98 C172 94.04 172 90.08 172 86 C159.46 86 146.92 86 134 86 Z M178 86 C178 101.18 178 116.36 178 132 C183.28 132 188.56 132 194 132 C194 128.37 194 124.74 194 121 C199 123 199 123 200.203125 125.1640625 C200.54859375 125.97617188 200.8940625 126.78828125 201.25 127.625 C202.60512738 130.18895062 202.60512738 130.18895062 205 132 C210.54756283 133.1995868 216.39865622 132.5052437 222 132 C220.80547211 128.76644078 219.53060613 126.11165816 217.4375 123.375 C215.7247752 121.12863691 214.91663858 119.74991574 214 117 C214.598125 116.773125 215.19625 116.54625 215.8125 116.3125 C218.74984726 114.55009164 219.59761796 113.13866458 221 110 C222.54571356 103.81714577 222.25934824 98.55857839 219 93 C213.44481918 87.2905086 207.70454952 85.81448873 199.97265625 85.70703125 C197.33575814 85.7240624 194.69898563 85.76284895 192.0625 85.8125 C187.421875 85.874375 182.78125 85.93625 178 86 Z M222 86 C223.92749663 92.02438093 226.09298095 97.88687005 228.5390625 103.71875 C228.86538666 104.50270142 229.19171082 105.28665283 229.52792358 106.09436035 C230.21042772 107.73184698 230.89449429 109.36868321 231.58007812 111.00488281 C232.63324832 113.51969575 233.68022345 116.03702576 234.7265625 118.5546875 C235.39286627 120.15119317 236.05952005 121.74755282 236.7265625 123.34375 C237.04009674 124.09781128 237.35363098 124.85187256 237.67666626 125.62878418 C238.93552553 129.06331627 238.93552553 129.06331627 241 132 C243.69654854 132.07319621 246.36691458 132.09242537 249.0625 132.0625 C249.82111328 132.05798828 250.57972656 132.05347656 251.36132812 132.04882812 C253.24091871 132.0370068 255.12046899 132.01907078 257 132 C261.34236413 123.83985264 264.86224694 115.37403531 268.35864258 106.82910156 C269.32277701 104.47490589 270.29480767 102.12407599 271.26757812 99.7734375 C271.88328055 98.27623406 272.49853195 96.77884504 273.11328125 95.28125 C273.54910271 94.22822693 273.54910271 94.22822693 273.99372864 93.15393066 C275.49197053 89.69006978 275.49197053 89.69006978 276 86 C270.72 86 265.44 86 260 86 C256.7 93.92 253.4 101.84 250 110 C247.34773791 104.69547582 244.9325073 99.56350596 242.8125 94.0625 C241.41280255 89.71135483 241.41280255 89.71135483 239 86 C236.13732433 85.92674832 233.299281 85.90761795 230.4375 85.9375 C229.63119141 85.94201172 228.82488281 85.94652344 227.99414062 85.95117188 C225.99606244 85.96299482 223.99802217 85.98093086 222 86 Z M277 86 C277 101.18 277 116.36 277 132 C282.28 132 287.56 132 293 132 C293 116.82 293 101.64 293 86 C287.72 86 282.44 86 277 86 Z M349 86 C349 101.18 349 116.36 349 132 C361.54 132 374.08 132 387 132 C387 128.04 387 124.08 387 120 C379.74 120 372.48 120 365 120 C365 118.35 365 116.7 365 115 C371.27 115 377.54 115 384 115 C384 111.04 384 107.08 384 103 C377.73 103 371.46 103 365 103 C365 101.35 365 99.7 365 98 C372.26 98 379.52 98 387 98 C387 94.04 387 90.08 387 86 C374.46 86 361.92 86 349 86 Z M455 86 C455 101.18 455 116.36 455 132 C467.21 132 479.42 132 492 132 C492 128.04 492 124.08 492 120 C485.07 120 478.14 120 471 120 C471 108.78 471 97.56 471 86 C465.72 86 460.44 86 455 86 Z M488 86 C488 90.29 488 94.58 488 99 C492.29 99 496.58 99 501 99 C501 109.89 501 120.78 501 132 C506.28 132 511.56 132 517 132 C517 121.11 517 110.22 517 99 C521.29 99 525.58 99 530 99 C530.33 98.67 530.66 98.34 531 98 C531 94.04 531 90.08 531 86 C516.81 86 502.62 86 488 86 Z M534 86 C534 101.18 534 116.36 534 132 C541.3940625 132.12375 541.3940625 132.12375 548.9375 132.25 C551.2422229 132.30462402 551.2422229 132.30462402 553.59350586 132.36035156 C562.76126573 132.43443447 569.68607041 131.65746204 576.875 125.5625 C582.59143686 118.66914967 583.68915046 112.78666835 583 104 C581.92579098 97.9951716 579.0106701 94.52846437 574.5234375 90.54296875 C566.07852206 85.37928206 557.60791692 85.62806842 547.9375 85.8125 C543.338125 85.874375 538.73875 85.93625 534 86 Z M586 118 C583.77101839 120.60047855 584.00059397 122.03326216 584.0625 125.5 C584.76080835 129.04385929 584.76080835 129.04385929 587 131.5 C591.21049774 133.60524887 594.53386088 133.32521276 599 132 C601.92371307 129.69646849 601.9669218 128.25990012 602.4375 124.5625 C601.92544623 120.39291929 601.07438979 118.82511494 598 116 C593.42332662 114.020898 590.20052649 115.70159871 586 118 Z " fill="#F1573D" transform="translate(574,0)"/>
<path d="M0 0 C9.9 0 19.8 0 30 0 C30.33 22.11 30.66 44.22 31 67 C32.28777344 62.33101562 33.57554688 57.66203125 34.90234375 52.8515625 C35.71787082 49.89837407 36.53351952 46.94522032 37.34960938 43.9921875 C38.64564665 39.30241263 39.94122556 34.61251443 41.23413086 29.921875 C42.27622705 26.14127694 43.32033183 22.36123896 44.36584663 18.58158493 C44.76487762 17.1376571 45.16317772 15.69352709 45.56074333 14.2491951 C46.1166203 12.23020988 46.67506403 10.21195153 47.23413086 8.19384766 C47.71045204 6.46843246 47.71045204 6.46843246 48.19639587 4.7081604 C49 2 49 2 50 0 C60.89 0 71.78 0 83 0 C81.2684642 5.77178601 79.61548275 11.27490761 77.50390625 16.86743164 C77.27420135 17.47866379 77.04449646 18.08989594 76.80783081 18.71965027 C76.06243538 20.70098293 75.31245514 22.68054558 74.5625 24.66015625 C74.03554879 26.05907103 73.50894402 27.45811636 72.98266602 28.85728455 C71.60572317 32.51592932 70.22511272 36.17317754 68.84338379 39.83001709 C66.63191864 45.68388602 64.4249585 51.53944976 62.22018433 57.3958416 C61.21465427 60.06396652 60.20561646 62.73075855 59.19540119 65.39711285 C58.51664748 67.20715205 57.85799336 69.02468883 57.19999695 70.84237671 C56 74 56 74 54.80940247 76.33755493 C52.39917357 81.41672368 53.25821235 85.18683067 55.0144043 90.36816406 C56.06689081 93.27133587 57.19261479 96.14255625 58.32421875 99.015625 C58.9090644 100.55928527 59.49144889 102.10388003 60.07148743 103.64935303 C61.59978793 107.70123886 63.16123028 111.73953647 64.7300415 115.77587891 C66.31901756 119.88187326 67.87579278 124.00002514 69.43554688 128.1171875 C75.11947487 143.09686244 75.11947487 143.09686244 81 158 C84.94543221 143.9130689 88.21348617 129.6579542 91.56658292 115.42155862 C92.41365759 111.82737509 93.26334799 108.23381003 94.11277771 104.6401825 C95.7186129 97.84487783 97.32240084 91.04909192 98.92531103 84.25309676 C101.79443251 72.08889842 104.6669117 59.92549284 107.54039425 47.76232404 C108.54568721 43.50664574 109.55003428 39.2507457 110.55355656 34.99464953 C111.02845338 32.98097512 111.50370332 30.96738443 111.97909546 28.9538269 C112.55463168 26.51597758 113.12960874 24.07799614 113.70387268 21.6398468 C113.96305481 20.54277405 114.22223694 19.44570129 114.48927307 18.31538391 C114.70991708 17.37988866 114.93056108 16.44439341 115.15789127 15.48054981 C116.40818537 10.31291438 117.71050189 5.15799243 119 0 C129.23 0 139.46 0 150 0 C151.65795899 7.02734378 151.65795899 7.02734378 152.23955727 9.49248695 C153.24985234 13.77465656 154.26019384 18.0568152 155.27059937 22.33895874 C157.37290149 31.24871625 159.4749961 40.15852246 161.57606411 49.06857109 C162.78229686 54.18377815 163.98874397 59.29893463 165.1953125 64.4140625 C165.4378734 65.44237812 165.6804343 66.47069374 165.93034554 67.53017044 C169.13227413 81.1027916 172.34294437 94.67330478 175.56392479 108.24141693 C176.75355274 113.25392277 177.94154183 118.26681735 179.12955952 123.27970505 C180.24411312 127.9815305 181.36163532 132.68263821 182.48125076 137.38326073 C183.16962467 140.27637313 183.85526242 143.17012868 184.54011917 146.06407547 C185.00590874 148.02848623 185.47511688 149.99208542 185.94442749 151.95565796 C186.21775909 153.11288361 186.4910907 154.27010925 186.77270508 155.46240234 C187.01136795 156.46637054 187.25003082 157.47033875 187.4959259 158.50473022 C188 161 188 161 188 164 C177.77 164 167.54 164 157 164 C155.33333333 157.33333333 153.66666667 150.66666667 152 144 C140.45 144 128.9 144 117 144 C115.35 150.6 113.7 157.2 112 164 C91.54 164 71.08 164 50 164 C45.49963744 152.7490936 45.49963744 152.7490936 44.04882812 148.29760742 C43.72168823 147.29924362 43.39454834 146.30087982 43.05749512 145.27226257 C42.71883423 144.22722061 42.38017334 143.18217865 42.03125 142.10546875 C41.48797058 140.44164909 41.48797058 140.44164909 40.93371582 138.74421692 C40.17251968 136.41095719 39.41289971 134.07718273 38.65478516 131.74291992 C37.50634873 128.20704683 36.353227 124.67272993 35.19921875 121.13867188 C34.45545404 118.85686049 33.71195579 116.57496224 32.96875 114.29296875 C32.63008911 113.25399948 32.29142822 112.21503021 31.94250488 111.14457703 C30.18311267 105.72441521 28.45169342 100.29586772 26.75195312 94.85668945 C26.41651489 93.78425491 26.08107666 92.71182037 25.73547363 91.60688782 C25 89 25 89 25 87 C24.01 87 23.02 87 22 87 C22.48919922 88.74023438 22.48919922 88.74023438 22.98828125 90.515625 C23.42977376 92.09372587 23.87117503 93.67185227 24.3125 95.25 C24.63250977 96.38695313 24.63250977 96.38695313 24.95898438 97.546875 C25.41136279 99.16733499 25.85246272 100.79097054 26.28442383 102.41699219 C26.75167459 104.10362238 27.26556693 105.77820552 27.83081055 107.43457031 C31.22790768 118.37842775 30.32220354 129.92304183 30.1875 141.25 C30.17242774 143.45962631 30.15874383 145.66926255 30.14648438 147.87890625 C30.11624724 153.25305325 30.05748944 158.62580181 30 164 C20.1 164 10.2 164 0 164 C0 109.88 0 55.76 0 0 Z M123 25 C123.57486047 31.62846641 124.45891062 38.12260122 125.6640625 44.6640625 C125.98484366 46.46345818 126.30514189 48.26294001 126.625 50.0625 C127.12471107 52.8522256 127.62796537 55.64115479 128.13964844 58.42871094 C128.63751632 61.15121687 129.12057522 63.87603065 129.6015625 66.6015625 C129.75670319 67.42572662 129.91184387 68.24989075 130.07168579 69.09902954 C131.42541437 76.88553141 130.27595945 83.38087608 128.37109375 91.0546875 C128.05849609 92.32828125 127.74589844 93.601875 127.42382812 94.9140625 C127.09536698 96.23445337 126.76658749 97.55476509 126.4375 98.875 C125.78745361 101.49669562 125.14114362 104.11925178 124.49609375 106.7421875 C124.20919678 107.8957373 123.9222998 109.04928711 123.62670898 110.23779297 C122.92624552 112.85300287 122.92624552 112.85300287 123 115 C130.59 115 138.18 115 146 115 C142.53730795 96.95755194 138.42874724 79.07812606 134.30834961 61.17736816 C133.36757945 57.08746555 132.43003655 52.99682325 131.4921875 48.90625 C129.66454049 40.93679009 127.83343159 32.96813111 126 25 C125.01 25 124.02 25 123 25 Z " fill="#006633" transform="translate(0,1)"/>
<path d="M0 0 C70.0880611 0 70.0880611 0 77.56640625 7.19140625 C82.33797705 13.21112636 84.11405653 20.45134248 84.14044189 28.01371765 C84.14615204 28.99900955 84.15186218 29.98430145 84.15774536 30.99945068 C84.15942215 32.60400116 84.15942215 32.60400116 84.16113281 34.2409668 C84.16858017 35.94434959 84.16858017 35.94434959 84.17617798 37.68214417 C84.19077877 41.43784187 84.19759856 45.19349733 84.203125 48.94921875 C84.20887864 51.56370545 84.21463635 54.17819215 84.22039795 56.79267883 C84.22996143 61.5756335 84.23586287 66.35857909 84.2388947 71.14154214 C84.24336929 78.16026978 84.2608937 85.17880208 84.2898953 92.19747037 C84.3142055 98.29447268 84.32184335 104.39139499 84.32357025 110.48844337 C84.32659018 113.07310867 84.33459631 115.65777328 84.34775543 118.24240685 C84.36488459 121.86577356 84.36291847 125.48866934 84.35644531 129.11206055 C84.3656601 130.17163971 84.37487488 131.23121887 84.3843689 132.32290649 C84.32611477 142.77667711 82.18470106 151.32923322 75 159.1875 C56.1474002 170.57761238 8.3048906 164 0 164 C0 109.88 0 55.76 0 0 Z M12 28 C12 28.66 12 29.32 12 30 C18.17407629 31.71502119 23.45514413 32.34551441 30 33 C30 66.99 30 100.98 30 136 C44.98304964 137.47920052 44.98304964 137.47920052 52 132 C54.61183486 127.76031406 54.28938118 123.10434269 54.2746582 118.26586914 C54.27976913 117.39695541 54.28488007 116.52804169 54.29014587 115.63279724 C54.30402067 112.76684641 54.30308674 109.90113663 54.30078125 107.03515625 C54.30466923 105.03885306 54.30900411 103.04255069 54.31376648 101.04624939 C54.32122406 96.86422035 54.32094066 92.68227574 54.31567383 88.50024414 C54.30987866 83.14581375 54.32681367 77.79172921 54.3500185 72.437356 C54.3647625 68.31520066 54.36562664 64.1931285 54.36250877 60.07095146 C54.36302161 58.09702303 54.36825228 56.1230899 54.37832069 54.14918709 C54.39068113 51.38707229 54.38389584 48.62562973 54.37231445 45.86352539 C54.37995819 45.0513858 54.38760193 44.23924622 54.39547729 43.40249634 C54.3504642 38.53626686 53.66386946 35.22932538 51 31 C46.99928721 27.61149117 43.10382529 27.59855168 38.07421875 27.70703125 C37.32662796 27.71127609 36.57903717 27.71552094 35.80879211 27.71989441 C33.43465268 27.73660944 31.06138033 27.77424653 28.6875 27.8125 C27.07227794 27.82755619 25.45704249 27.84124297 23.84179688 27.85351562 C19.89420012 27.8864892 15.94724678 27.93822031 12 28 Z " fill="#006633" transform="translate(388,1)"/>
<path d="M0 0 C70.14215686 0 70.14215686 0 78 7 C86.27727597 17.25205754 85.31431614 31.52327811 85.30078125 43.9921875 C85.30468181 45.51091628 85.30901919 47.02964399 85.31376648 48.54837036 C85.32117515 51.71343541 85.32097666 54.87838881 85.31567383 58.04345703 C85.30988543 62.05958637 85.32682108 66.07525358 85.3500185 70.09130669 C85.36489159 73.22297752 85.36560932 76.35454048 85.36250877 79.48624039 C85.36301517 80.96511881 85.3681215 82.44400441 85.37832069 83.92284775 C85.53273918 109.43583951 85.53273918 109.43583951 77.8125 118.44921875 C74.59650415 121.20083588 70.99923445 122.71297364 67 124 C66.45263184 124.17724609 65.90526367 124.35449219 65.34130859 124.53710938 C62.02910146 125.19195241 58.75193606 125.12250413 55.390625 125.09765625 C54.74593262 125.09664917 54.10124023 125.09564209 53.43701172 125.09460449 C51.04132291 125.08939402 48.64565957 125.07543281 46.25 125.0625 C38.20625 125.0315625 38.20625 125.0315625 30 125 C30 137.87 30 150.74 30 164 C20.1 164 10.2 164 0 164 C0 109.88 0 55.76 0 0 Z M12 28 C12 28.66 12 29.32 12 30 C18.17407629 31.71502119 23.45514413 32.34551441 30 33 C30 54.45 30 75.9 30 98 C41.57719325 98.75674322 41.57719325 98.75674322 51 95 C53.61872537 91.40500499 54.37709264 88.88148815 54.38818359 84.46289062 C54.39764008 83.37826538 54.40709656 82.29364014 54.4168396 81.17614746 C54.41076691 80.0145813 54.40469421 78.85301514 54.3984375 77.65625 C54.40274277 75.85347595 54.40274277 75.85347595 54.40713501 74.01428223 C54.40917451 71.47582528 54.40365269 68.93735258 54.39111328 66.39892578 C54.37505906 62.51429082 54.39096695 58.63069636 54.41015625 54.74609375 C54.4081738 52.27864354 54.40433009 49.81119397 54.3984375 47.34375 C54.40451019 46.18218384 54.41058289 45.02061768 54.4168396 43.82385254 C54.40738312 42.73922729 54.39792664 41.65460205 54.38818359 40.53710938 C54.38460342 39.11078186 54.38460342 39.11078186 54.38095093 37.65563965 C53.8392877 33.87966162 52.35404851 31.04516846 49.31542969 28.69970703 C45.88032583 27.66164212 42.50549554 27.75546241 38.953125 27.8046875 C38.18192322 27.8075174 37.41072144 27.81034729 36.6161499 27.81326294 C34.16060668 27.82442987 31.7054324 27.84952771 29.25 27.875 C27.58203653 27.88503432 25.91406732 27.89415939 24.24609375 27.90234375 C20.16392103 27.92435775 16.082023 27.95886333 12 28 Z " fill="#006633" transform="translate(192,1)"/>
<path d="M0 0 C10.23 0 20.46 0 31 0 C34.92151857 16.56203532 38.84262232 33.12416868 42.76300907 49.68647194 C44.58417787 57.38023554 46.40551858 65.07395836 48.22729492 72.76757812 C49.81901541 79.48964152 51.41038192 86.21178862 53.00135893 92.93402803 C53.84026694 96.47855407 54.67932786 100.02304371 55.51881599 103.5674324 C57.37393844 111.40035302 59.22548215 119.23410406 61.07234573 127.06897736 C61.7143276 129.79129653 62.35823681 132.5131519 63.00333786 135.23473358 C63.83590921 138.74750286 64.6651927 142.26103376 65.49224174 145.77510715 C65.95630288 147.74315232 66.42369031 149.71041222 66.89115238 151.67765236 C67.16836345 152.85816862 67.44557451 154.03868488 67.73118591 155.25497437 C67.9769358 156.29506338 68.22268568 157.3351524 68.47588253 158.40675926 C69 161 69 161 69 164 C58.77 164 48.54 164 38 164 C36.35 157.4 34.7 150.8 33 144 C21.45 144 9.9 144 -2 144 C-3.65 150.6 -5.3 157.2 -7 164 C-17.23 164 -27.46 164 -38 164 C-37.39747181 159.17977449 -36.84578231 154.87692112 -35.74324036 150.23292542 C-35.48969788 149.15580292 -35.2361554 148.07868042 -34.97492981 146.96891785 C-34.55965279 145.23355522 -34.55965279 145.23355522 -34.13598633 143.46313477 C-33.84311737 142.22440613 -33.55024841 140.98567749 -33.24850464 139.70941162 C-32.44826691 136.32517342 -31.64281934 132.94219475 -30.83639359 129.55942655 C-29.98602991 125.98840751 -29.14047113 122.41625092 -28.2943573 118.84422302 C-26.68645328 112.05942399 -25.07418295 105.2756703 -23.46037167 98.49227422 C-21.64722046 90.86996164 -19.83922149 83.24643013 -18.03154719 75.62281716 C-12.05215528 50.40772753 -6.05671452 25.19665379 0 0 Z M4 25 C4.93309029 33.2774139 6.01139189 41.49363079 7.54296875 49.68359375 C7.74359421 50.76297714 7.74359421 50.76297714 7.94827271 51.86416626 C8.49755831 54.80233416 9.05189376 57.73934509 9.62182617 60.67358398 C12.68000919 76.50509572 12.68000919 76.50509572 11 84 C10.75258057 85.18279541 10.50516113 86.36559082 10.25024414 87.58422852 C9.360465 91.75493118 8.40145547 95.90843512 7.4375 100.0625 C7.10435818 101.51486863 6.77167217 102.96734189 6.43945312 104.41992188 C5.6323876 107.94806619 4.81601722 111.47386816 4 115 C11.59 115 19.18 115 27 115 C23.65530198 97.666038 19.76671075 80.47123667 15.8302002 63.26477051 C15.1325936 60.21296783 14.43732694 57.1606342 13.74215412 54.10827637 C12.90827038 50.44701531 12.07344638 46.78596895 11.23828125 43.125 C11.08091303 42.43515015 10.92354481 41.74530029 10.76140785 41.0345459 C10.31710603 39.08802054 9.87207074 37.14166264 9.42700195 35.1953125 C9.174814 34.09203613 8.92262604 32.98875977 8.66279602 31.85205078 C8.13050703 29.56157955 7.58041839 27.27864287 7 25 C6.01 25 5.02 25 4 25 Z " fill="#006633" transform="translate(510,1)"/>
<path d="M0 0 C1.25159912 0.00523682 2.50319824 0.01047363 3.79272461 0.01586914 C4.78942421 0.01799156 4.78942421 0.01799156 5.80625916 0.02015686 C7.93590735 0.02577021 10.06545175 0.03832485 12.19506836 0.05102539 C13.63582205 0.05603868 15.07657739 0.06060188 16.51733398 0.06469727 C20.05578225 0.07489452 23.59416066 0.09385401 27.13256836 0.11352539 C31.05514323 14.13760765 34.32207613 28.32421451 37.66621971 42.49437737 C38.51040716 46.06967915 39.35686815 49.64444274 40.20300293 53.21928406 C41.623212 59.22103854 43.04176093 65.22318343 44.45922852 71.22558594 C46.08635378 78.11574065 47.71582536 85.00533706 49.34663248 91.89462119 C50.92932581 98.58079186 52.51060353 105.26729651 54.09117126 111.95396996 C54.75732608 114.77214055 55.42390289 117.5902108 56.09083557 120.4081974 C59.53336977 134.95648524 62.93694265 149.50873598 66.13256836 164.11352539 C55.57256836 164.11352539 45.01256836 164.11352539 34.13256836 164.11352539 C33.47256836 161.20540039 32.81256836 158.29727539 32.13256836 155.30102539 C31.81932617 153.93240356 31.81932617 153.93240356 31.49975586 152.53613281 C31.33733398 151.81272705 31.17491211 151.08932129 31.00756836 150.34399414 C30.83999023 149.60560303 30.67241211 148.86721191 30.49975586 148.10644531 C30.13256836 146.11352539 30.13256836 146.11352539 30.13256836 143.11352539 C18.25256836 143.11352539 6.37256836 143.11352539 -5.86743164 143.11352539 C-6.52743164 146.74352539 -7.18743164 150.37352539 -7.86743164 154.11352539 C-9.69820087 162.94429462 -9.69820087 162.94429462 -10.86743164 164.11352539 C-13.15894581 164.20143514 -15.45315688 164.22046577 -17.74633789 164.21118164 C-18.77633156 164.20905922 -18.77633156 164.20905922 -19.82713318 164.20689392 C-22.02810965 164.20128018 -24.22898573 164.18872546 -26.42993164 164.17602539 C-27.91886247 164.17101216 -29.40779488 164.16644894 -30.89672852 164.16235352 C-34.55366516 164.1521557 -38.21053424 164.13319616 -41.86743164 164.11352539 C-38.75289549 148.78430188 -35.19305407 133.57384992 -31.56274414 118.35961914 C-30.95483018 115.80352842 -30.34715893 113.24737997 -29.73971558 110.69117737 C-28.31098827 104.68037173 -26.87994656 98.67011995 -25.44789398 92.66010576 C-22.74273352 81.30682674 -20.04212474 69.95246496 -17.3420372 58.59797859 C-16.4668327 54.91938209 -15.59035068 51.24109197 -14.71365356 47.56285095 C-14.16076669 45.24050222 -13.60801944 42.91812025 -13.05541992 40.59570312 C-12.79068941 39.4841709 -12.5259589 38.37263868 -12.25320625 37.22742367 C-10.86299644 31.3724063 -9.49660277 25.51276251 -8.15985107 19.64529419 C-7.88431334 18.43782815 -7.6087756 17.23036211 -7.32488823 15.98630619 C-6.79793717 13.6704292 -6.27421068 11.35381554 -5.75410652 9.03639126 C-5.40389096 7.49646558 -5.40389096 7.49646558 -5.04660034 5.9254303 C-4.84228834 5.01760835 -4.63797634 4.1097864 -4.42747307 3.17445469 C-3.56787153 0.01115656 -3.4069036 0.1348838 0 0 Z M1.13256836 25.11352539 C-0.12082896 27.62032002 0.23869029 28.58534288 0.75341797 31.31274414 C0.99378029 32.61550293 0.99378029 32.61550293 1.23899841 33.94458008 C1.41914993 34.88720703 1.59930145 35.82983398 1.78491211 36.80102539 C2.15284337 38.79970624 2.52067876 40.79840474 2.88842773 42.79711914 C3.47604748 45.94625236 4.06654391 49.09481881 4.65966797 52.24291992 C5.22978338 55.28177658 5.78900204 58.32249933 6.34741211 61.36352539 C6.5255394 62.2899585 6.70366669 63.2163916 6.88719177 64.17089844 C8.47042191 72.83077548 8.81697215 80.70207618 6.60131836 89.29321289 C6.28549805 90.55133789 5.96967773 91.80946289 5.64428711 93.10571289 C5.30775498 94.40016785 4.97050872 95.69443736 4.63256836 96.98852539 C3.96998272 99.56771783 3.31594342 102.14882998 2.66381836 104.73071289 C2.37055664 105.86105957 2.07729492 106.99140625 1.77514648 108.15600586 C0.99102451 111.26057266 0.99102451 111.26057266 1.13256836 115.11352539 C8.39256836 115.11352539 15.65256836 115.11352539 23.13256836 115.11352539 C22.47237585 109.17179285 21.72096959 103.64046311 20.38256836 97.87158203 C20.20846436 97.1029483 20.03436035 96.33431458 19.85498047 95.54238892 C19.28570235 93.03501774 18.70931522 90.52934442 18.13256836 88.02368164 C17.73246649 86.27021914 17.3327328 84.51667259 16.93334961 82.76304626 C16.09920889 79.10531139 15.26172938 75.44836319 14.42163086 71.79199219 C13.34370708 67.09999769 12.2725345 62.40649411 11.20361328 57.71244144 C10.38042311 54.0995533 9.55455853 50.48728096 8.7277832 46.87521172 C8.33163409 45.14374643 7.93612408 43.41213479 7.54125977 41.68037605 C6.99095941 39.26954844 6.43727088 36.859525 5.88256836 34.44970703 C5.71942139 33.73232864 5.55627441 33.01495026 5.38818359 32.27583313 C4.54922163 28.59629155 4.54922163 28.59629155 3.13256836 25.11352539 C2.47256836 25.11352539 1.81256836 25.11352539 1.13256836 25.11352539 Z " fill="#006633" transform="translate(317.867431640625,0.886474609375)"/>
<path d="M0 0 C10.19212691 -0.61398355 10.19212691 -0.61398355 14.125 2.375 C17.15493894 6.61691451 17.14255811 8.74299815 16.5078125 13.8046875 C15.79544172 16.88432116 14.58387752 18.22819827 12 20 C8.1002699 21.6713129 4.36692677 21 0 21 C0 14.07 0 7.14 0 0 Z " fill="#F1573D" transform="translate(1124,99)"/>
<path d="M0 0 C9.76586641 -0.70596625 9.76586641 -0.70596625 12.84375 1.0546875 C15.40925328 3.81409509 16.30075162 6.47381835 16.4375 10.125 C15.8313253 15.4939759 15.8313253 15.4939759 14 18 C9.51581607 20.98945595 5.34658811 20.62259378 0 21 C0 14.07 0 7.14 0 0 Z " fill="#F1573D" transform="translate(1080,42)"/>
<path d="M0 0 C8.75 -0.125 8.75 -0.125 11 1 C11 3.31 11 5.62 11 8 C7.17010894 9.80230168 4.21878192 10.19622241 0 10 C0 6.7 0 3.4 0 0 Z " fill="#F1573D" transform="translate(768,99)"/>
<path d="M0 0 C1.44375 0.12375 2.8875 0.2475 4.375 0.375 C5.59316406 0.47941406 5.59316406 0.47941406 6.8359375 0.5859375 C9 1 9 1 11 3 C10.43181818 8.56818182 10.43181818 8.56818182 9 10 C5.99668982 10.14193337 3.00782866 10.04236378 0 10 C0 6.7 0 3.4 0 0 Z " fill="#F1573D" transform="translate(894,41)"/>
<path d="M0 0 C1.99097846 2.98646769 2.94124926 5.59687262 4 9 C1.69 9 -0.62 9 -3 9 C-2.5020163 5.26512223 -2.12508244 3.18762365 0 0 Z " fill="#F1573D" transform="translate(949,46)"/>
</svg>
